<svg width="112" height="26" viewBox="0 0 112 26" fill="none" xmlns="http://www.w3.org/2000/svg">
<path d="M4 6C4 4.89543 4.89543 4 6 4H20C21.1046 4 22 4.89543 22 6V20C22 21.1046 21.1046 22 20 22H6C4.89543 22 4 21.1046 4 20V6Z" fill="#111111"/>
<path fill-rule="evenodd" clip-rule="evenodd" d="M7 0C7.55228 0 8 0.447715 8 1V25C8 25.5523 7.55228 26 7 26C6.44772 26 6 25.5523 6 25V1C6 0.447715 6.44772 0 7 0Z" fill="#111111"/>
<path fill-rule="evenodd" clip-rule="evenodd" d="M0 11C0 10.4477 0.447715 10 1 10H25C25.5523 10 26 10.4477 26 11C26 11.5523 25.5523 12 25 12H1C0.447715 12 0 11.5523 0 11Z" fill="#111111"/>
<path fill-rule="evenodd" clip-rule="evenodd" d="M11 0C11.5523 0 12 0.447715 12 1V25C12 25.5523 11.5523 26 11 26C10.4477 26 10 25.5523 10 25V1C10 0.447715 10.4477 0 11 0Z" fill="#111111"/>
<path fill-rule="evenodd" clip-rule="evenodd" d="M0 15C0 14.4477 0.447715 14 1 14H25C25.5523 14 26 14.4477 26 15C26 15.5523 25.5523 16 25 16H1C0.447715 16 0 15.5523 0 15Z" fill="#111111"/>
<path fill-rule="evenodd" clip-rule="evenodd" d="M15 0C15.5523 0 16 0.447715 16 1V25C16 25.5523 15.5523 26 15 26C14.4477 26 14 25.5523 14 25V1C14 0.447715 14.4477 0 15 0Z" fill="#111111"/>
<path fill-rule="evenodd" clip-rule="evenodd" d="M0 19C0 18.4477 0.447715 18 1 18H25C25.5523 18 26 18.4477 26 19C26 19.5523 25.5523 20 25 20H1C0.447715 20 0 19.5523 0 19Z" fill="#111111"/>
<path fill-rule="evenodd" clip-rule="evenodd" d="M19 0C19.5523 0 20 0.447715 20 1V25C20 25.5523 19.5523 26 19 26C18.4477 26 18 25.5523 18 25V1C18 0.447715 18.4477 0 19 0Z" fill="#111111"/>
<path fill-rule="evenodd" clip-rule="evenodd" d="M0 7C0 6.44772 0.447715 6 1 6H25C25.5523 6 26 6.44772 26 7C26 7.55228 25.5523 8 25 8H1C0.447715 8 0 7.55228 0 7Z" fill="#111111"/>
<path d="M8 18L18 8C18 8 19 13 16 16C13 19 8 18 8 18Z" fill="#059F19"/>
<path d="M18 8L8 18C8 18 7 13 10 10C13 7.00003 18 8 18 8Z" fill="#07E424"/>
<path d="M37 18.68V7H40.984C41.8053 7 42.52 7.15467 43.128 7.464C43.7467 7.77333 44.2213 8.20533 44.552 8.76C44.8933 9.31467 45.064 9.96533 45.064 10.712C45.064 11.448 44.8933 12.0987 44.552 12.664C44.2107 13.2187 43.736 13.6507 43.128 13.96C42.52 14.2693 41.8053 14.424 40.984 14.424H39.4V18.68H37ZM39.4 12.264H40.984C41.496 12.264 41.9013 12.1253 42.2 11.848C42.5093 11.56 42.664 11.1813 42.664 10.712C42.664 10.2427 42.5093 9.86933 42.2 9.592C41.9013 9.304 41.496 9.16 40.984 9.16H39.4V12.264Z" fill="#111111"/>
<path d="M51.7777 18.68C51.1591 18.68 50.6151 18.552 50.1458 18.296C49.6764 18.0293 49.3084 17.6613 49.0417 17.192C48.7857 16.7227 48.6577 16.1787 48.6577 15.56V9.16H45.9378V7H51.0578V15.56C51.0578 15.848 51.1431 16.0827 51.3138 16.264C51.4951 16.4347 51.7298 16.52 52.0177 16.52H54.5778V18.68H51.7777Z" fill="#111111"/>
<path d="M58.7955 18.84C57.9102 18.84 57.2062 18.6 56.6835 18.12C56.1715 17.64 55.9155 16.9893 55.9155 16.168C55.9155 15.2827 56.2195 14.6053 56.8275 14.136C57.4462 13.656 58.3315 13.416 59.4835 13.416H61.3075V12.76C61.3075 12.4187 61.1848 12.1467 60.9395 11.944C60.7048 11.7413 60.3848 11.64 59.9795 11.64C59.6062 11.64 59.2968 11.7253 59.0515 11.896C58.8062 12.0667 58.6568 12.3013 58.6035 12.6H56.2835C56.3795 11.7147 56.7635 11.016 57.4355 10.504C58.1182 9.98133 58.9928 9.72 60.0595 9.72C61.1795 9.72 62.0648 9.99733 62.7155 10.552C63.3768 11.096 63.7075 11.832 63.7075 12.76V18.68H61.3875V17.24H61.0035L61.4035 16.68C61.4035 17.3413 61.1635 17.8693 60.6835 18.264C60.2142 18.648 59.5848 18.84 58.7955 18.84ZM59.6915 17.08C60.1608 17.08 60.5448 16.9573 60.8435 16.712C61.1528 16.456 61.3075 16.1253 61.3075 15.72V14.776H59.5315C59.1688 14.776 58.8755 14.8827 58.6515 15.096C58.4275 15.2987 58.3155 15.5707 58.3155 15.912C58.3155 16.2747 58.4382 16.5627 58.6835 16.776C58.9288 16.9787 59.2648 17.08 59.6915 17.08Z" fill="#111111"/>
<path d="M65.7812 18.68V9.88H68.1012V11.56H68.8053L68.1012 12.12C68.1012 11.3733 68.3146 10.7867 68.7412 10.36C69.1679 9.93333 69.7439 9.72 70.4693 9.72C71.3226 9.72 72.0052 10.0187 72.5173 10.616C73.0399 11.2133 73.3013 12.008 73.3013 13V18.68H70.9012V13.24C70.9012 12.7813 70.7786 12.4293 70.5332 12.184C70.2986 11.928 69.9626 11.8 69.5253 11.8C69.0986 11.8 68.7679 11.928 68.5332 12.184C68.2986 12.4293 68.1813 12.7813 68.1813 13.24V18.68H65.7812Z" fill="#111111"/>
<path d="M80.079 18.68C79.183 18.68 78.479 18.424 77.967 17.912C77.455 17.4 77.199 16.696 77.199 15.8V12.04H74.879V9.88H77.199V7.4H79.599V9.88H82.879V12.04H79.599V15.8C79.599 16.28 79.839 16.52 80.319 16.52H82.719V18.68H80.079Z" fill="#111111"/>
<path d="M84.9688 18.68V7H88.7288C89.9128 7 90.8567 7.272 91.5607 7.816C92.2647 8.34933 92.6167 9.07467 92.6167 9.992C92.6167 10.504 92.4941 10.952 92.2487 11.336C92.0141 11.72 91.6941 12.0187 91.2887 12.232C90.8941 12.4453 90.4621 12.552 89.9928 12.552V12.6C90.5154 12.5893 90.9901 12.6853 91.4167 12.888C91.8541 13.0907 92.2061 13.3947 92.4727 13.8C92.7394 14.2053 92.8727 14.7067 92.8727 15.304C92.8727 15.9867 92.7074 16.584 92.3768 17.096C92.0568 17.5973 91.5981 17.9867 91.0007 18.264C90.4034 18.5413 89.6941 18.68 88.8727 18.68H84.9688ZM87.2887 16.744H88.7767C89.2994 16.744 89.7101 16.6053 90.0088 16.328C90.3074 16.0507 90.4567 15.6667 90.4567 15.176C90.4567 14.6853 90.3074 14.3013 90.0088 14.024C89.7101 13.736 89.2994 13.592 88.7767 13.592H87.2887V16.744ZM87.2887 11.704H88.6967C89.1661 11.704 89.5341 11.5813 89.8008 11.336C90.0674 11.08 90.2007 10.7387 90.2007 10.312C90.2007 9.87467 90.0674 9.53867 89.8008 9.304C89.5341 9.05867 89.1661 8.936 88.6967 8.936H87.2887V11.704Z" fill="#111111"/>
<path d="M98.3065 18.84C97.5278 18.84 96.8505 18.696 96.2745 18.408C95.6985 18.1093 95.2505 17.6987 94.9305 17.176C94.6212 16.6427 94.4665 16.024 94.4665 15.32V13.24C94.4665 12.536 94.6212 11.9227 94.9305 11.4C95.2505 10.8667 95.6985 10.456 96.2745 10.168C96.8505 9.86933 97.5278 9.72 98.3065 9.72C99.0958 9.72 99.7732 9.86933 100.339 10.168C100.915 10.456 101.357 10.8667 101.667 11.4C101.987 11.9227 102.146 12.536 102.146 13.24V15.32C102.146 16.024 101.987 16.6427 101.667 17.176C101.357 17.6987 100.915 18.1093 100.339 18.408C99.7732 18.696 99.0958 18.84 98.3065 18.84ZM98.3065 16.76C98.7758 16.76 99.1332 16.6373 99.3785 16.392C99.6238 16.136 99.7465 15.7787 99.7465 15.32V13.24C99.7465 12.7707 99.6238 12.4133 99.3785 12.168C99.1332 11.9227 98.7758 11.8 98.3065 11.8C97.8478 11.8 97.4905 11.9227 97.2345 12.168C96.9892 12.4133 96.8665 12.7707 96.8665 13.24V15.32C96.8665 15.7787 96.9892 16.136 97.2345 16.392C97.4905 16.6373 97.8478 16.76 98.3065 16.76Z" fill="#111111"/>
<path d="M108.86 18.68C107.964 18.68 107.26 18.424 106.748 17.912C106.236 17.4 105.98 16.696 105.98 15.8V12.04H103.66V9.88H105.98V7.4H108.38V9.88H111.66V12.04H108.38V15.8C108.38 16.28 108.62 16.52 109.1 16.52H111.5V18.68H108.86Z" fill="#111111"/>
</svg>
