<svg width="26" height="26" viewBox="0 0 26 26" fill="none" xmlns="http://www.w3.org/2000/svg">
<path d="M4 6C4 4.89543 4.89543 4 6 4H20C21.1046 4 22 4.89543 22 6V20C22 21.1046 21.1046 22 20 22H6C4.89543 22 4 21.1046 4 20V6Z" fill="#111111"/>
<path fill-rule="evenodd" clip-rule="evenodd" d="M7 0C7.55228 0 8 0.447715 8 1V25C8 25.5523 7.55228 26 7 26C6.44772 26 6 25.5523 6 25V1C6 0.447715 6.44772 0 7 0Z" fill="#111111"/>
<path fill-rule="evenodd" clip-rule="evenodd" d="M11 0C11.5523 0 12 0.447715 12 1V25C12 25.5523 11.5523 26 11 26C10.4477 26 10 25.5523 10 25V1C10 0.447715 10.4477 0 11 0Z" fill="#111111"/>
<path fill-rule="evenodd" clip-rule="evenodd" d="M15 0C15.5523 0 16 0.447715 16 1V25C16 25.5523 15.5523 26 15 26C14.4477 26 14 25.5523 14 25V1C14 0.447715 14.4477 0 15 0Z" fill="#111111"/>
<path fill-rule="evenodd" clip-rule="evenodd" d="M19 0C19.5523 0 20 0.447715 20 1V25C20 25.5523 19.5523 26 19 26C18.4477 26 18 25.5523 18 25V1C18 0.447715 18.4477 0 19 0Z" fill="#111111"/>
<path fill-rule="evenodd" clip-rule="evenodd" d="M0 7C0 6.44772 0.447715 6 1 6H25C25.5523 6 26 6.44772 26 7C26 7.55228 25.5523 8 25 8H1C0.447715 8 0 7.55228 0 7Z" fill="#111111"/>
<path fill-rule="evenodd" clip-rule="evenodd" d="M0 11C0 10.4477 0.447715 10 1 10H25C25.5523 10 26 10.4477 26 11C26 11.5523 25.5523 12 25 12H1C0.447715 12 0 11.5523 0 11Z" fill="#111111"/>
<path fill-rule="evenodd" clip-rule="evenodd" d="M0 15C0 14.4477 0.447715 14 1 14H25C25.5523 14 26 14.4477 26 15C26 15.5523 25.5523 16 25 16H1C0.447715 16 0 15.5523 0 15Z" fill="#111111"/>
<path fill-rule="evenodd" clip-rule="evenodd" d="M0 19C0 18.4477 0.447715 18 1 18H25C25.5523 18 26 18.4477 26 19C26 19.5523 25.5523 20 25 20H1C0.447715 20 0 19.5523 0 19Z" fill="#111111"/>
<path d="M18 8.00003L8 18C8 18 7 13 10 10C13 7.00003 18 8.00003 18 8.00003Z" fill="#07E424"/>
<path d="M8 18L18 8.00003C18 8.00003 19 13 16 16C13 19 8 18 8 18Z" fill="#059F19"/>
</svg>
